<svg width="21" height="21" viewBox="0 0 21 21" fill="none" xmlns="http://www.w3.org/2000/svg">
    <path d="M17.8457 10.9982V12.6649C17.8457 14.0456 16.7264 15.1649 15.3457 15.1649C13.965 15.1649 12.8457 14.0456 12.8457 12.6649V10.9982C12.8457 9.6175 13.965 8.49821 15.3457 8.49821C16.7264 8.49821 17.8457 9.6175 17.8457 10.9982ZM17.8457 10.9982V9.33154C17.8457 5.18941 14.4878 1.83154 10.3457 1.83154C6.20357 1.83154 2.8457 5.18941 2.8457 9.33154V10.9982M2.8457 10.9982V12.6649C2.8457 14.0456 3.96499 15.1649 5.3457 15.1649C6.72641 15.1649 7.8457 14.0456 7.8457 12.6649V10.9982C7.8457 9.6175 6.72641 8.49821 5.3457 8.49821C3.96499 8.49821 2.8457 9.6175 2.8457 10.9982ZM17.8457 11.8315V13.4982C17.8457 16.2596 15.6071 18.4982 12.8457 18.4982H10.3457" stroke="#A2845E" stroke-width="1.2" stroke-linecap="round" stroke-linejoin="round"/>
</svg>
