<svg width="10" height="6" viewBox="0 0 10 6" fill="none" xmlns="http://www.w3.org/2000/svg">
    <path d="M5.34863 5.20462C5.1561 5.41682 4.84394 5.41682 4.6514 5.20462L0.921746 1.09407C0.72921 0.88187 0.72921 0.537827 0.921746 0.325628C1.11428 0.113429 1.42644 0.113429 1.61898 0.325628L5.34863 4.43618C5.54117 4.64838 5.54117 4.99242 5.34863 5.20462Z" fill="#C0C0C0"/>
    <path d="M4.6514 5.20462C4.45886 4.99242 4.45884 4.64835 4.65137 4.43615C6.10789 2.83088 6.9245 1.93087 8.38102 0.325596C8.57356 0.113397 8.88572 0.113397 9.07826 0.325596C9.2708 0.537795 9.2708 0.881838 9.07826 1.09404L5.34863 5.20462C5.1561 5.41682 4.84394 5.41682 4.6514 5.20462Z" fill="#C0C0C0"/>
</svg>
