<svg width="14" height="17" viewBox="0 0 14 17" fill="none" xmlns="http://www.w3.org/2000/svg">
    <path d="M7.70663 0.79396C7.31598 0.403316 6.68158 0.403316 6.29093 0.79396L2.29074 4.79416C1.90009 5.1848 1.90009 5.81921 2.29074 6.20985C2.68138 6.60049 3.31579 6.60049 3.70643 6.20985L6.00029 3.91599V10.5007C6.00029 11.0538 6.44719 11.5007 7.00034 11.5007C7.55349 11.5007 8.00039 11.0538 8.00039 10.5007V3.91599L10.2943 6.20985C10.6849 6.60049 11.3193 6.60049 11.7099 6.20985C12.1006 5.81921 12.1006 5.1848 11.7099 4.79416L7.70975 0.79396H7.70663ZM2.0001 11.5007C2.0001 10.9476 1.5532 10.5007 1.00005 10.5007C0.446897 10.5007 0 10.9476 0 11.5007V13.5008C0 15.1572 1.34382 16.501 3.00015 16.501H11.0005C12.6569 16.501 14.0007 15.1572 14.0007 13.5008V11.5007C14.0007 10.9476 13.5538 10.5007 13.0006 10.5007C12.4475 10.5007 12.0006 10.9476 12.0006 11.5007V13.5008C12.0006 14.054 11.5537 14.5009 11.0005 14.5009H3.00015C2.44699 14.5009 2.0001 14.054 2.0001 13.5008V11.5007Z" fill="white"/>
</svg>
